<svg xmlns="http://www.w3.org/2000/svg" width="1400" height="900" viewBox="0 0 1400 900">
  <defs>
    <radialGradient id="sky" cx="58%" cy="35%" r="78%">
      <stop offset="0" stop-color="#102a2d"/>
      <stop offset=".48" stop-color="#061516"/>
      <stop offset="1" stop-color="#020403"/>
    </radialGradient>
    <radialGradient id="earth" cx="40%" cy="35%" r="65%">
      <stop offset="0" stop-color="#c28b4e"/>
      <stop offset=".5" stop-color="#12384a"/>
      <stop offset="1" stop-color="#07101d"/>
    </radialGradient>
    <filter id="blur"><feGaussianBlur stdDeviation="18"/></filter>
    <filter id="noise"><feTurbulence type="fractalNoise" baseFrequency=".9" numOctaves="2" stitchTiles="stitch"/><feColorMatrix type="saturate" values="0"/></filter>
  </defs>
  <rect width="1400" height="900" fill="url(#sky)"/>
  <rect width="1400" height="900" filter="url(#noise)" opacity=".08"/>
  <circle cx="1010" cy="214" r="410" fill="#80ffd2" opacity=".06"/>
  
      <path d="M0 714 C220 602 388 570 590 646 C852 744 1068 650 1400 548 L1400 900 L0 900Z" fill="#060908"/>
      <g opacity=".9">
        <path d="M118 770 L150 640 L190 770 Z" fill="#0b2021" stroke="#80ffd2" stroke-opacity=".22"/><path d="M216 770 L248 598 L288 770 Z" fill="#0b2021" stroke="#80ffd2" stroke-opacity=".22"/><path d="M314 770 L346 556 L386 770 Z" fill="#0b2021" stroke="#80ffd2" stroke-opacity=".22"/><path d="M412 770 L444 514 L484 770 Z" fill="#0b2021" stroke="#80ffd2" stroke-opacity=".22"/><path d="M510 770 L542 472 L582 770 Z" fill="#0b2021" stroke="#80ffd2" stroke-opacity=".22"/><path d="M608 770 L640 640 L680 770 Z" fill="#0b2021" stroke="#80ffd2" stroke-opacity=".22"/><path d="M706 770 L738 598 L778 770 Z" fill="#0b2021" stroke="#80ffd2" stroke-opacity=".22"/><path d="M804 770 L836 556 L876 770 Z" fill="#0b2021" stroke="#80ffd2" stroke-opacity=".22"/><path d="M902 770 L934 514 L974 770 Z" fill="#0b2021" stroke="#80ffd2" stroke-opacity=".22"/><path d="M1000 770 L1032 472 L1072 770 Z" fill="#0b2021" stroke="#80ffd2" stroke-opacity=".22"/><path d="M1098 770 L1130 640 L1170 770 Z" fill="#0b2021" stroke="#80ffd2" stroke-opacity=".22"/><path d="M1196 770 L1228 598 L1268 770 Z" fill="#0b2021" stroke="#80ffd2" stroke-opacity=".22"/><path d="M1294 770 L1326 556 L1366 770 Z" fill="#0b2021" stroke="#80ffd2" stroke-opacity=".22"/>
      </g>
      <path d="M114 704 C376 430 642 396 962 256 C1124 184 1272 118 1400 36" fill="none" stroke="#80ffd2" stroke-width="9" opacity=".22"/>
      <path d="M0 330 C280 390 528 364 738 250 C946 138 1112 108 1400 140" fill="none" stroke="#c28b4e" stroke-width="4" opacity=".28"/>
      <g fill="#80ffd2">
        <circle cx="60" cy="150" r="1.5" opacity="0.18"/><circle cx="187" cy="221" r="2.5" opacity="0.26"/><circle cx="314" cy="292" r="3.5" opacity="0.33999999999999997"/><circle cx="441" cy="363" r="4.5" opacity="0.42"/><circle cx="568" cy="434" r="1.5" opacity="0.5"/><circle cx="695" cy="505" r="2.5" opacity="0.18"/><circle cx="822" cy="576" r="3.5" opacity="0.26"/><circle cx="949" cy="647" r="4.5" opacity="0.33999999999999997"/><circle cx="1076" cy="718" r="1.5" opacity="0.42"/><circle cx="1203" cy="169" r="2.5" opacity="0.5"/><circle cx="1330" cy="240" r="3.5" opacity="0.18"/><circle cx="177" cy="311" r="4.5" opacity="0.26"/><circle cx="304" cy="382" r="1.5" opacity="0.33999999999999997"/><circle cx="431" cy="453" r="2.5" opacity="0.42"/><circle cx="558" cy="524" r="3.5" opacity="0.5"/><circle cx="685" cy="595" r="4.5" opacity="0.18"/><circle cx="812" cy="666" r="1.5" opacity="0.26"/><circle cx="939" cy="737" r="2.5" opacity="0.33999999999999997"/><circle cx="1066" cy="188" r="3.5" opacity="0.42"/><circle cx="1193" cy="259" r="4.5" opacity="0.5"/><circle cx="1320" cy="330" r="1.5" opacity="0.18"/><circle cx="167" cy="401" r="2.5" opacity="0.26"/><circle cx="294" cy="472" r="3.5" opacity="0.33999999999999997"/><circle cx="421" cy="543" r="4.5" opacity="0.42"/><circle cx="548" cy="614" r="1.5" opacity="0.5"/><circle cx="675" cy="685" r="2.5" opacity="0.18"/><circle cx="802" cy="756" r="3.5" opacity="0.26"/><circle cx="929" cy="207" r="4.5" opacity="0.33999999999999997"/><circle cx="1056" cy="278" r="1.5" opacity="0.42"/><circle cx="1183" cy="349" r="2.5" opacity="0.5"/><circle cx="1310" cy="420" r="3.5" opacity="0.18"/><circle cx="157" cy="491" r="4.5" opacity="0.26"/><circle cx="284" cy="562" r="1.5" opacity="0.33999999999999997"/><circle cx="411" cy="633" r="2.5" opacity="0.42"/><circle cx="538" cy="704" r="3.5" opacity="0.5"/><circle cx="665" cy="155" r="4.5" opacity="0.18"/><circle cx="792" cy="226" r="1.5" opacity="0.26"/><circle cx="919" cy="297" r="2.5" opacity="0.33999999999999997"/><circle cx="1046" cy="368" r="3.5" opacity="0.42"/><circle cx="1173" cy="439" r="4.5" opacity="0.5"/><circle cx="1300" cy="510" r="1.5" opacity="0.18"/><circle cx="147" cy="581" r="2.5" opacity="0.26"/><circle cx="274" cy="652" r="3.5" opacity="0.33999999999999997"/><circle cx="401" cy="723" r="4.5" opacity="0.42"/><circle cx="528" cy="174" r="1.5" opacity="0.5"/><circle cx="655" cy="245" r="2.5" opacity="0.18"/><circle cx="782" cy="316" r="3.5" opacity="0.26"/><circle cx="909" cy="387" r="4.5" opacity="0.33999999999999997"/><circle cx="1036" cy="458" r="1.5" opacity="0.42"/><circle cx="1163" cy="529" r="2.5" opacity="0.5"/><circle cx="1290" cy="600" r="3.5" opacity="0.18"/><circle cx="137" cy="671" r="4.5" opacity="0.26"/><circle cx="264" cy="742" r="1.5" opacity="0.33999999999999997"/><circle cx="391" cy="193" r="2.5" opacity="0.42"/><circle cx="518" cy="264" r="3.5" opacity="0.5"/><circle cx="645" cy="335" r="4.5" opacity="0.18"/><circle cx="772" cy="406" r="1.5" opacity="0.26"/><circle cx="899" cy="477" r="2.5" opacity="0.33999999999999997"/><circle cx="1026" cy="548" r="3.5" opacity="0.42"/><circle cx="1153" cy="619" r="4.5" opacity="0.5"/><circle cx="1280" cy="690" r="1.5" opacity="0.18"/><circle cx="127" cy="761" r="2.5" opacity="0.26"/><circle cx="254" cy="212" r="3.5" opacity="0.33999999999999997"/><circle cx="381" cy="283" r="4.5" opacity="0.42"/><circle cx="508" cy="354" r="1.5" opacity="0.5"/><circle cx="635" cy="425" r="2.5" opacity="0.18"/><circle cx="762" cy="496" r="3.5" opacity="0.26"/><circle cx="889" cy="567" r="4.5" opacity="0.33999999999999997"/><circle cx="1016" cy="638" r="1.5" opacity="0.42"/><circle cx="1143" cy="709" r="2.5" opacity="0.5"/><circle cx="1270" cy="160" r="3.5" opacity="0.18"/><circle cx="117" cy="231" r="4.5" opacity="0.26"/><circle cx="244" cy="302" r="1.5" opacity="0.33999999999999997"/><circle cx="371" cy="373" r="2.5" opacity="0.42"/><circle cx="498" cy="444" r="3.5" opacity="0.5"/><circle cx="625" cy="515" r="4.5" opacity="0.18"/><circle cx="752" cy="586" r="1.5" opacity="0.26"/><circle cx="879" cy="657" r="2.5" opacity="0.33999999999999997"/><circle cx="1006" cy="728" r="3.5" opacity="0.42"/><circle cx="1133" cy="179" r="4.5" opacity="0.5"/><circle cx="1260" cy="250" r="1.5" opacity="0.18"/><circle cx="107" cy="321" r="2.5" opacity="0.26"/><circle cx="234" cy="392" r="3.5" opacity="0.33999999999999997"/><circle cx="361" cy="463" r="4.5" opacity="0.42"/><circle cx="488" cy="534" r="1.5" opacity="0.5"/><circle cx="615" cy="605" r="2.5" opacity="0.18"/><circle cx="742" cy="676" r="3.5" opacity="0.26"/><circle cx="869" cy="747" r="4.5" opacity="0.33999999999999997"/><circle cx="996" cy="198" r="1.5" opacity="0.42"/><circle cx="1123" cy="269" r="2.5" opacity="0.5"/>
      </g>
    
  <text x="74" y="818" fill="#d6e8e2" opacity=".2" font-family="serif" font-size="34" letter-spacing="8">LA ÚLTIMA COLONIA</text>
</svg>