<svg xmlns="http://www.w3.org/2000/svg" width="1400" height="900" viewBox="0 0 1400 900">
  <defs>
    <radialGradient id="sky" cx="58%" cy="35%" r="78%">
      <stop offset="0" stop-color="#162527"/>
      <stop offset=".48" stop-color="#081013"/>
      <stop offset="1" stop-color="#010203"/>
    </radialGradient>
    <radialGradient id="earth" cx="40%" cy="35%" r="65%">
      <stop offset="0" stop-color="#bf8b52"/>
      <stop offset=".5" stop-color="#12384a"/>
      <stop offset="1" stop-color="#07101d"/>
    </radialGradient>
    <filter id="blur"><feGaussianBlur stdDeviation="18"/></filter>
    <filter id="noise"><feTurbulence type="fractalNoise" baseFrequency=".9" numOctaves="2" stitchTiles="stitch"/><feColorMatrix type="saturate" values="0"/></filter>
  </defs>
  <rect width="1400" height="900" fill="url(#sky)"/>
  <rect width="1400" height="900" filter="url(#noise)" opacity=".08"/>
  <circle cx="1010" cy="214" r="410" fill="#8cffd5" opacity=".06"/>
  
      <rect width="1400" height="900" fill="url(#sky)"/>
      <path d="M0 728 C210 650 408 690 626 624 C870 548 1090 580 1400 512 L1400 900 L0 900Z" fill="#030505"/>
      <ellipse cx="703" cy="486" rx="146" ry="238" fill="#020303" opacity=".92"/>
      <path d="M626 342 C560 224 506 178 390 126" stroke="#020303" stroke-width="22" stroke-linecap="round"/>
      <path d="M782 342 C848 224 902 178 1018 126" stroke="#020303" stroke-width="22" stroke-linecap="round"/>
      <path d="M654 512 C514 540 430 604 352 750" stroke="#020303" stroke-width="30" stroke-linecap="round"/>
      <path d="M752 512 C892 540 976 604 1054 750" stroke="#020303" stroke-width="30" stroke-linecap="round"/>
      <path d="M592 454 C648 422 756 422 812 454" stroke="#8cffd5" stroke-width="5" opacity=".45"/>
      <circle cx="654" cy="438" r="8" fill="#8cffd5" opacity=".75"/>
      <circle cx="754" cy="438" r="8" fill="#8cffd5" opacity=".75"/>
      <path d="M0 412 C216 378 374 390 554 420 C794 460 996 452 1400 350" stroke="#bf8b52" stroke-width="3" opacity=".2" fill="none"/>
    
  <text x="74" y="818" fill="#d6e8e2" opacity=".2" font-family="serif" font-size="34" letter-spacing="8">EL CONTACTO</text>
</svg>