<svg xmlns="http://www.w3.org/2000/svg" width="1400" height="900" viewBox="0 0 1400 900">
  <defs>
    <radialGradient id="sky" cx="58%" cy="35%" r="78%">
      <stop offset="0" stop-color="#19334d"/>
      <stop offset=".48" stop-color="#071326"/>
      <stop offset="1" stop-color="#030509"/>
    </radialGradient>
    <radialGradient id="earth" cx="40%" cy="35%" r="65%">
      <stop offset="0" stop-color="#b9874a"/>
      <stop offset=".5" stop-color="#12384a"/>
      <stop offset="1" stop-color="#07101d"/>
    </radialGradient>
    <filter id="blur"><feGaussianBlur stdDeviation="18"/></filter>
    <filter id="noise"><feTurbulence type="fractalNoise" baseFrequency=".9" numOctaves="2" stitchTiles="stitch"/><feColorMatrix type="saturate" values="0"/></filter>
  </defs>
  <rect width="1400" height="900" fill="url(#sky)"/>
  <rect width="1400" height="900" filter="url(#noise)" opacity=".08"/>
  <circle cx="1010" cy="214" r="410" fill="#83ffe2" opacity=".06"/>
  
      <rect x="0" y="0" width="1400" height="900" fill="url(#sky)"/>
      <path d="M0 718 C190 664 342 692 496 640 C716 566 862 600 1010 554 C1162 506 1240 466 1400 484 L1400 900 L0 900Z" fill="#050609"/>
      <g stroke="#83ffe2" stroke-opacity=".32" fill="none">
        <circle cx="704" cy="274" r="104"/>
        <circle cx="704" cy="274" r="184" opacity=".45"/>
        <path d="M214 172 L704 274 L1190 144"/>
        <path d="M704 274 L814 610"/>
      </g>
      <rect x="196" y="540" width="58" height="176" fill="#111923"/>
      <rect x="1158" y="470" width="76" height="246" fill="#101820"/>
      <path d="M676 636 L732 636 L718 742 L690 742Z" fill="#c8d2d7" opacity=".7"/>
      <path d="M642 742 L766 742" stroke="#83ffe2" stroke-width="5" opacity=".45"/>
      <circle cx="1120" cy="122" r="18" fill="#b9874a"/>
    
  <text x="74" y="818" fill="#d6e8e2" opacity=".2" font-family="serif" font-size="34" letter-spacing="8">LOS OBSERVADORES</text>
</svg>